<mxfile host="app.diagrams.net" modified="2023-09-07T15:23:35.313Z" agent="Mozilla/5.0 (X11; Ubuntu; Linux x86_64; rv:109.0) Gecko/20100101 Firefox/117.0" etag="BWi4N8mmMK1ADbXuVIWv" version="21.7.2" type="device">
  <diagram name="Page-1" id="Zsn0Yqgajn_QYxI-BJPL">
    <mxGraphModel dx="1432" dy="771" grid="1" gridSize="10" guides="1" tooltips="1" connect="1" arrows="1" fold="1" page="1" pageScale="1" pageWidth="1169" pageHeight="827" math="0" shadow="0">
      <root>
        <mxCell id="0" />
        <mxCell id="1" parent="0" />
        <mxCell id="lepmZyCrf-BxXjSmm1Cq-1" value="Server" style="rounded=0;whiteSpace=wrap;html=1;fillColor=#dae8fc;strokeColor=#6c8ebf;" vertex="1" parent="1">
          <mxGeometry x="370" y="120" width="200" height="40" as="geometry" />
        </mxCell>
        <mxCell id="lepmZyCrf-BxXjSmm1Cq-2" value="Client" style="ellipse;whiteSpace=wrap;html=1;fillColor=#d5e8d4;strokeColor=#82b366;" vertex="1" parent="1">
          <mxGeometry x="135" y="270" width="60" height="50" as="geometry" />
        </mxCell>
        <mxCell id="lepmZyCrf-BxXjSmm1Cq-3" value="Client" style="ellipse;whiteSpace=wrap;html=1;fillColor=#d5e8d4;strokeColor=#82b366;" vertex="1" parent="1">
          <mxGeometry x="229" y="270" width="60" height="50" as="geometry" />
        </mxCell>
        <mxCell id="lepmZyCrf-BxXjSmm1Cq-4" value="Client" style="ellipse;whiteSpace=wrap;html=1;fillColor=#d5e8d4;strokeColor=#82b366;" vertex="1" parent="1">
          <mxGeometry x="320" y="270" width="60" height="50" as="geometry" />
        </mxCell>
        <mxCell id="lepmZyCrf-BxXjSmm1Cq-5" value="Client" style="ellipse;whiteSpace=wrap;html=1;fillColor=#e1d5e7;strokeColor=#9673a6;" vertex="1" parent="1">
          <mxGeometry x="530" y="270" width="60" height="50" as="geometry" />
        </mxCell>
        <mxCell id="lepmZyCrf-BxXjSmm1Cq-6" value="Client" style="ellipse;whiteSpace=wrap;html=1;fillColor=#e1d5e7;strokeColor=#9673a6;" vertex="1" parent="1">
          <mxGeometry x="628.99" y="270" width="60" height="50" as="geometry" />
        </mxCell>
        <mxCell id="lepmZyCrf-BxXjSmm1Cq-7" value="Client" style="ellipse;whiteSpace=wrap;html=1;fillColor=#e1d5e7;strokeColor=#9673a6;" vertex="1" parent="1">
          <mxGeometry x="730" y="270" width="60" height="50" as="geometry" />
        </mxCell>
        <mxCell id="lepmZyCrf-BxXjSmm1Cq-10" value="" style="endArrow=classic;html=1;rounded=0;entryX=0.16;entryY=1;entryDx=0;entryDy=0;entryPerimeter=0;exitX=0.5;exitY=0;exitDx=0;exitDy=0;strokeWidth=2;" edge="1" parent="1" source="lepmZyCrf-BxXjSmm1Cq-2" target="lepmZyCrf-BxXjSmm1Cq-1">
          <mxGeometry width="50" height="50" relative="1" as="geometry">
            <mxPoint x="200" y="270" as="sourcePoint" />
            <mxPoint x="250" y="220" as="targetPoint" />
          </mxGeometry>
        </mxCell>
        <mxCell id="lepmZyCrf-BxXjSmm1Cq-11" value="" style="endArrow=classic;html=1;rounded=0;entryX=0.15;entryY=1.05;entryDx=0;entryDy=0;entryPerimeter=0;exitX=0.5;exitY=0;exitDx=0;exitDy=0;strokeWidth=2;" edge="1" parent="1" source="lepmZyCrf-BxXjSmm1Cq-3" target="lepmZyCrf-BxXjSmm1Cq-1">
          <mxGeometry width="50" height="50" relative="1" as="geometry">
            <mxPoint x="270" y="270" as="sourcePoint" />
            <mxPoint x="440" y="160" as="targetPoint" />
          </mxGeometry>
        </mxCell>
        <mxCell id="lepmZyCrf-BxXjSmm1Cq-12" value="" style="endArrow=classic;html=1;rounded=0;exitX=0.5;exitY=0;exitDx=0;exitDy=0;strokeWidth=2;" edge="1" parent="1" source="lepmZyCrf-BxXjSmm1Cq-4">
          <mxGeometry width="50" height="50" relative="1" as="geometry">
            <mxPoint x="370" y="280" as="sourcePoint" />
            <mxPoint x="400" y="160" as="targetPoint" />
          </mxGeometry>
        </mxCell>
        <mxCell id="lepmZyCrf-BxXjSmm1Cq-13" value="Publishers" style="text;html=1;strokeColor=#666666;fillColor=#f5f5f5;align=center;verticalAlign=middle;whiteSpace=wrap;rounded=0;fontStyle=1;fontColor=#333333;" vertex="1" parent="1">
          <mxGeometry x="134" y="340" width="250" height="30" as="geometry" />
        </mxCell>
        <mxCell id="lepmZyCrf-BxXjSmm1Cq-14" value="Subscribers" style="text;html=1;strokeColor=#666666;fillColor=#f5f5f5;align=center;verticalAlign=middle;whiteSpace=wrap;rounded=0;fontStyle=1;fontColor=#333333;" vertex="1" parent="1">
          <mxGeometry x="527.97" y="340" width="262.03" height="30" as="geometry" />
        </mxCell>
        <mxCell id="lepmZyCrf-BxXjSmm1Cq-24" value="" style="endArrow=classic;html=1;rounded=0;entryX=0.5;entryY=0;entryDx=0;entryDy=0;exitX=0.75;exitY=1;exitDx=0;exitDy=0;strokeWidth=2;" edge="1" parent="1" source="lepmZyCrf-BxXjSmm1Cq-1" target="lepmZyCrf-BxXjSmm1Cq-7">
          <mxGeometry width="50" height="50" relative="1" as="geometry">
            <mxPoint x="590" y="130" as="sourcePoint" />
            <mxPoint x="805" y="260" as="targetPoint" />
          </mxGeometry>
        </mxCell>
        <mxCell id="lepmZyCrf-BxXjSmm1Cq-26" value="" style="endArrow=classic;html=1;rounded=0;entryX=0.5;entryY=0;entryDx=0;entryDy=0;exitX=0.75;exitY=1;exitDx=0;exitDy=0;strokeWidth=2;" edge="1" parent="1" source="lepmZyCrf-BxXjSmm1Cq-1" target="lepmZyCrf-BxXjSmm1Cq-5">
          <mxGeometry width="50" height="50" relative="1" as="geometry">
            <mxPoint x="579" y="200" as="sourcePoint" />
            <mxPoint x="579" y="287" as="targetPoint" />
          </mxGeometry>
        </mxCell>
        <mxCell id="lepmZyCrf-BxXjSmm1Cq-29" value="" style="endArrow=classic;html=1;rounded=0;entryX=0.5;entryY=0;entryDx=0;entryDy=0;exitX=0.75;exitY=1;exitDx=0;exitDy=0;strokeWidth=2;" edge="1" parent="1" source="lepmZyCrf-BxXjSmm1Cq-1" target="lepmZyCrf-BxXjSmm1Cq-6">
          <mxGeometry width="50" height="50" relative="1" as="geometry">
            <mxPoint x="560" y="190" as="sourcePoint" />
            <mxPoint x="678" y="320" as="targetPoint" />
          </mxGeometry>
        </mxCell>
      </root>
    </mxGraphModel>
  </diagram>
</mxfile>
